<svg width="76" height="20" viewBox="0 0 76 20" xmlns="http://www.w3.org/2000/svg">
  <path d="M65.332 4.679h-5.519V.562h15.655v4.117h-5.505v14.728h-4.631V4.68zM49.719.562h4.631V15.29h8.055v4.117H49.719V.562zM46.416 17.03l-.06.055c-2.026 1.864-4.486 2.732-7.74 2.732-5.732 0-9.583-3.928-9.583-9.774 0-5.914 3.752-9.889 9.336-9.889 5.348 0 8.954 3.943 8.973 9.812 0 .578-.039 1.269-.096 1.692H34.03l.045.219c.568 2.509 2.237 3.835 4.828 3.835 1.682 0 3.28-.598 4.62-1.73l.06-.05 2.833 3.098zm-3.933-8.794l-.047-.215c-.526-2.424-1.946-3.705-4.106-3.705-2.253 0-3.719 1.281-4.24 3.705l-.045.215h8.438zM20.768 14.12L17.071.562H12.08L8.382 14.093 4.862.563H.048L5.37 19.406h5.588l3.584-12.19 3.584 12.19h5.587L29.034.562h-4.745l-3.521 13.559z" fill-rule="nonzero"/>
</svg>